<svg id="Calque_1" data-name="Calque 1" xmlns="http://www.w3.org/2000/svg" viewBox="326.75 281.82 212.32 28.1">
  <defs>
    <style>
      .cls-1 {
        fill: #244c4c;
      }

      .cls-1, .cls-2 {
        stroke-width: 0px;
      }

      .cls-2 {
        fill: #adb7b7;
      }
    </style>
  </defs>
  <path class="cls-1" d="M382.88,296.06c-3.42,0-6.22-2.6-6.22-5.67s2.8-5.67,6.22-5.67c1.71,0,3.21.63,5.42,2.65l-2.04,1.89c-1.59-1.39-2.42-1.81-3.38-1.81-1.71,0-3.17,1.34-3.17,2.94s1.46,2.9,3.17,2.9c.96,0,1.79-.42,3.38-1.89l2.04,1.97c-2.21,2.06-3.71,2.69-5.42,2.69"/>
  <path class="cls-1" d="M398.64,289.22l-1.46,2.39h2.84l-1.38-2.39ZM402.52,296.15l-1.33-2.31h-5.13l-1.3,2.31-2.63-1.09,6.51-10.58,6.38,10.58-2.5,1.09Z"/>
  <rect class="cls-1" x="408.39" y="285.08" width="2.81" height="10.7"/>
  <g>
    <path class="cls-1" d="M420.45,287.54h-.96v1.68h.96c.54,0,1-.33,1-.8-.04-.46-.5-.92-1-.88M423.88,296.31s-2.25-2.48-3.71-4.03c-.21-.21-.5-.63-.5-.63v4.28h-2.88v-10.84s2.92.04,3.71,0c2.05-.04,3.67,1.43,3.67,3.28,0,1.47-.75,2.27-1.46,2.6-.08.04-.16.12-.25.12,0,0,.17.09.21.13,1.34,1.3,3.21,3.15,3.21,3.15l-2,1.93Z"/>
    <path class="cls-1" d="M433.01,289.89v6.01h-2.84v-11.42l8.51,6.51c0-.17-.04-.38-.04-.55v-5.38h2.84v11.42l-8.47-6.59Z"/>
  </g>
  <rect class="cls-2" x="457.63" y="285.08" width="2.8" height="10.7"/>
  <path class="cls-2" d="M469.77,289.89v6.01h-2.84v-11.42l8.51,6.51c0-.17-.04-.38-.04-.55v-5.38h2.83v11.42l-8.47-6.59Z"/>
  <polygon class="cls-2" points="486.94 291.65 486.94 295.72 484.1 295.72 484.1 285.02 491.39 285.02 491.39 287.63 486.94 287.63 486.94 289.08 491.39 289.08 491.39 291.65 486.94 291.65"/>
  <path class="cls-2" d="M502.27,287.49c-1.84,0-3.26,1.34-3.26,2.94s1.42,2.94,3.26,2.94,3.13-1.3,3.13-2.94-1.38-2.94-3.13-2.94M502.27,296.15c-3.42,0-6.26-2.6-6.26-5.71s2.84-5.67,6.26-5.67,6.13,2.6,6.13,5.67-2.71,5.71-6.13,5.71"/>
  <polygon class="cls-2" points="451.29 292.67 449.57 294.4 447.86 292.67 449.57 290.94 451.29 292.67"/>
  <g>
    <polygon class="cls-1" points="355.95 302.01 349.81 295.8 355.95 289.58 362.09 295.8 355.95 302.01"/>
    <polygon class="cls-1" points="348.28 309.69 342.14 303.47 348.28 297.26 354.42 303.47 348.28 309.69"/>
    <polygon class="cls-1" points="348.28 281.82 342.14 288.03 348.28 294.25 354.42 288.03 348.28 281.82"/>
    <polygon class="cls-1" points="340.61 302.01 334.47 295.8 340.61 289.58 346.74 295.8 340.61 302.01"/>
    <polygon class="cls-1" points="332.89 309.73 326.75 303.52 332.89 297.31 339.02 303.52 332.89 309.73"/>
    <rect class="cls-1" x="359.41" y="299.16" width="8.79" height="8.79" transform="translate(321.2 -168.34) rotate(45)"/>
  </g>
  <g>
    <path class="cls-1" d="M380.95,303.4l-.2,1.2-.2.04c-.51-.4-1-.61-1.46-.61-.33,0-.58.08-.77.25s-.28.36-.28.58.1.4.3.55c.2.14.51.31.93.48.4.17.72.32.96.47.24.15.45.34.63.57s.27.53.27.88-.1.69-.29,1-.47.56-.85.75c-.38.19-.83.28-1.36.28-.32,0-.65-.04-1.01-.11-.35-.07-.69-.18-1.02-.32l.17-1.28.15-.08c.26.26.56.46.91.6.35.14.67.22.96.22.32,0,.58-.08.77-.24.2-.16.3-.36.3-.6s-.1-.43-.3-.57c-.2-.15-.52-.31-.94-.48-.38-.17-.69-.32-.94-.47-.25-.14-.46-.34-.63-.58-.17-.24-.26-.54-.26-.89s.1-.7.3-1,.49-.54.86-.71.81-.26,1.31-.26c.56,0,1.13.11,1.7.33Z"/>
    <path class="cls-1" d="M387.47,303.49l-.24,1.12-.12.04c-.22-.17-.47-.3-.76-.4s-.58-.14-.89-.14c-1.22,0-1.83.76-1.83,2.27,0,.79.16,1.39.48,1.8s.78.61,1.39.61c.3,0,.6-.05.91-.14s.58-.23.82-.4l.13.07-.11,1.12c-.59.27-1.2.41-1.83.41-1.02,0-1.79-.29-2.33-.87s-.81-1.41-.81-2.48.28-1.95.85-2.54,1.38-.89,2.43-.89c.72,0,1.36.14,1.89.42Z"/>
    <path class="cls-1" d="M390.14,307.66l.05,2.1h-1.27l.05-1.98-.05-4.63h1.28l-.07,4.51Z"/>
    <path class="cls-1" d="M396.73,308.7l.09.09-.11.96h-4.25l.05-1.98-.05-4.63h4.29l.08.11-.09.96-1.68-.07h-1.32s-.03,1.73-.03,1.73h1.27s1.15-.03,1.15-.03l.07.11-.08.98-1.25-.04h-1.18s-.01.77-.01.77l.03,1.08h1.23s1.79-.04,1.79-.04Z"/>
    <path class="cls-1" d="M404.02,307.74l.04,2.02h-1.38l-3.14-4.64h-.08v2.4s.03,2.24.03,2.24h-1.15l.05-1.94-.04-4.67h1.35l3.14,4.64h.11l-.04-4.6,1.18-.07-.07,4.62Z"/>
    <path class="cls-1" d="M410.71,303.49l-.24,1.12-.12.04c-.22-.17-.47-.3-.76-.4s-.58-.14-.89-.14c-1.22,0-1.83.76-1.83,2.27,0,.79.16,1.39.48,1.8s.78.61,1.39.61c.3,0,.6-.05.91-.14s.58-.23.82-.4l.13.07-.11,1.12c-.59.27-1.2.41-1.83.41-1.02,0-1.79-.29-2.33-.87s-.81-1.41-.81-2.48.28-1.95.85-2.54,1.38-.89,2.43-.89c.72,0,1.36.14,1.89.42Z"/>
    <path class="cls-1" d="M416.44,308.7l.09.09-.11.96h-4.25l.05-1.98-.05-4.63h4.29l.08.11-.09.96-1.68-.07h-1.32s-.03,1.73-.03,1.73h1.27s1.15-.03,1.15-.03l.07.11-.08.98-1.25-.04h-1.18s-.01.77-.01.77l.03,1.08h1.23s1.79-.04,1.79-.04Z"/>
    <path class="cls-1" d="M421.88,303.4l-.2,1.2-.2.04c-.51-.4-1-.61-1.46-.61-.33,0-.58.08-.77.25s-.28.36-.28.58.1.4.3.55c.2.14.51.31.93.48.4.17.72.32.96.47.24.15.45.34.63.57s.26.53.26.88-.09.69-.28,1c-.19.31-.47.56-.85.75-.38.19-.83.28-1.36.28-.32,0-.65-.04-1.01-.11-.35-.07-.69-.18-1.02-.32l.17-1.28.15-.08c.26.26.56.46.91.6.35.14.67.22.96.22.32,0,.58-.08.77-.24.2-.16.3-.36.3-.6s-.1-.43-.3-.57c-.2-.15-.52-.31-.94-.48-.38-.17-.69-.32-.94-.47-.25-.14-.46-.34-.63-.58-.17-.24-.26-.54-.26-.89s.1-.7.3-1,.49-.54.86-.71.81-.26,1.31-.26c.57,0,1.13.11,1.7.33Z"/>
    <path class="cls-1" d="M431.6,307.66l.05,2.1h-1.27l.04-1.98v-.79s-1.72-.01-1.72-.01l-1.56.03v.66s.04,2.1.04,2.1h-1.27l.05-1.98-.05-4.63h1.29l-.04,2.74,1.64.03h1.62s-.03-2.77-.03-2.77h1.28l-.07,4.51Z"/>
    <path class="cls-1" d="M439.14,306.51v.98c0,.75-.24,1.33-.73,1.74s-1.17.62-2.07.62-1.55-.21-2.01-.61c-.46-.41-.68-.99-.66-1.75v-1.02s-.03-3.32-.03-3.32h1.29l-.07,4.14c0,1,.5,1.5,1.54,1.5.51,0,.9-.12,1.17-.38.26-.25.39-.63.38-1.13l-.05-4.14h1.29l-.04,3.36Z"/>
    <path class="cls-1" d="M448.39,309.76h-1.13l-.13-2-.3-2.69h-.08l-1.72,4h-.99l-1.59-4h-.11l-.29,2.57-.17,2.12h-1.07l.72-6.61h1.48l.3.98,1.25,3.26h.09l1.32-3.27.33-.96h1.44l.65,6.61Z"/>
    <path class="cls-1" d="M455.61,309.76h-1.29l-.17-.82-.24-.73h-1.48s-1.33,0-1.33,0l-.25.66-.19.88h-1.26l2.48-6.61h1.48l2.24,6.61ZM453.58,307.23l-.94-2.89h-.09l-1.07,2.89h1.05s1.06,0,1.06,0Z"/>
    <path class="cls-1" d="M458.32,307.66l.05,2.1h-1.27l.05-1.98-.05-4.63h1.29l-.07,4.51Z"/>
    <path class="cls-1" d="M466.32,307.74l.04,2.02h-1.38l-3.14-4.64h-.08v2.4s.03,2.24.03,2.24h-1.15l.05-1.94-.04-4.67h1.35l3.14,4.64h.11l-.04-4.6,1.18-.07-.07,4.62Z"/>
    <path class="cls-1" d="M472.85,308.7l.09.09-.11.96h-4.25l.05-1.98-.05-4.63h4.29l.08.11-.09.96-1.68-.07h-1.33s-.03,1.73-.03,1.73h1.27s1.15-.03,1.15-.03l.07.11-.08.98-1.25-.04h-1.18s-.01.77-.01.77l.03,1.08h1.23s1.79-.04,1.79-.04Z"/>
    <path class="cls-1" d="M478.3,303.4l-.2,1.2-.2.04c-.51-.4-1-.61-1.46-.61-.33,0-.58.08-.78.25-.19.17-.28.36-.28.58s.1.4.3.55c.2.14.51.31.93.48.4.17.72.32.96.47.24.15.45.34.63.57s.26.53.26.88-.09.69-.28,1c-.19.31-.47.56-.85.75-.38.19-.83.28-1.36.28-.32,0-.65-.04-1.01-.11-.35-.07-.69-.18-1.02-.32l.17-1.28.15-.08c.26.26.56.46.91.6.35.14.67.22.96.22.32,0,.58-.08.78-.24.2-.16.3-.36.3-.6s-.1-.43-.3-.57c-.2-.15-.52-.31-.94-.48-.38-.17-.69-.32-.94-.47-.25-.14-.46-.34-.63-.58-.17-.24-.26-.54-.26-.89s.1-.7.3-1c.2-.3.49-.54.86-.71.38-.18.81-.26,1.3-.26.56,0,1.13.11,1.7.33Z"/>
    <path class="cls-1" d="M492.05,305.92c-.19.3-.38.53-.6.69s-.48.25-.79.29c-.26,0-.74-.07-1.42-.2-.08.63-.29,1.19-.64,1.67-.35.48-.81.86-1.38,1.13-.57.27-1.22.4-1.95.4-1.11,0-1.98-.31-2.6-.92-.62-.62-.93-1.46-.93-2.54,0-.67.12-1.26.36-1.77s.57-.91.99-1.19.9-.42,1.42-.42.88.12,1.16.36c.28.24.42.54.42.9,0,.04,0,.13-.03.25.8-.59,1.51-1.24,2.12-1.96s1.09-1.45,1.43-2.21h.12c.27.26.46.56.54.9-.3.68-.83,1.41-1.58,2.19-.75.78-1.63,1.51-2.63,2.19-1,.68-2.01,1.22-3.03,1.62.14.52.41.92.81,1.21.4.29.91.43,1.55.43.8,0,1.47-.22,2.01-.66.53-.44.82-1.02.87-1.75-.28-.04-.49-.07-.62-.07-.41,0-.75.25-1.03.74h-.15s-.23-.75-.23-.75c.19-.31.39-.54.6-.69.22-.15.48-.24.8-.28.27,0,.76.08,1.5.22.07,0,.29.05.65.12.36.07.65.11.86.11.25,0,.45-.06.62-.17s.3-.3.4-.55h.16s.22.74.22.74ZM483.32,304.57c-.28.42-.42.98-.42,1.68v.08c.63-.25,1.24-.55,1.84-.91.18-.14.3-.29.38-.46.08-.16.11-.31.1-.46-.02-.18-.09-.33-.23-.42-.14-.1-.31-.15-.52-.15-.48,0-.86.21-1.14.63Z"/>
    <path class="cls-1" d="M498.35,303.4l-.2,1.2-.2.04c-.51-.4-1-.61-1.46-.61-.33,0-.58.08-.78.25-.19.17-.28.36-.28.58s.1.4.3.55c.2.14.51.31.93.48.4.17.72.32.96.47.24.15.45.34.63.57s.26.53.26.88-.09.69-.28,1c-.19.31-.47.56-.85.75-.38.19-.83.28-1.36.28-.32,0-.65-.04-1.01-.11-.35-.07-.69-.18-1.02-.32l.17-1.28.15-.08c.26.26.56.46.91.6.35.14.67.22.96.22.32,0,.58-.08.78-.24.2-.16.3-.36.3-.6s-.1-.43-.3-.57c-.2-.15-.52-.31-.94-.48-.38-.17-.69-.32-.94-.47-.25-.14-.46-.34-.63-.58-.17-.24-.26-.54-.26-.89s.1-.7.3-1c.2-.3.49-.54.86-.71.38-.18.81-.26,1.3-.26.56,0,1.13.11,1.7.33Z"/>
    <path class="cls-1" d="M505.23,303.91c.53.57.8,1.37.8,2.39,0,1.14-.29,2.02-.85,2.64s-1.38.92-2.43.92c-.98,0-1.74-.29-2.27-.87-.53-.58-.79-1.4-.79-2.47s.28-1.96.85-2.57c.57-.6,1.38-.9,2.43-.9.97,0,1.72.28,2.26.85ZM501.46,304.63c-.3.36-.44.93-.44,1.73,0,.89.15,1.52.44,1.9.29.38.75.57,1.39.57s1.12-.18,1.42-.53c.3-.36.45-.94.45-1.75,0-.88-.15-1.51-.44-1.89s-.76-.57-1.42-.57-1.1.18-1.4.53Z"/>
    <path class="cls-1" d="M512.26,303.49l-.24,1.12-.12.04c-.22-.17-.47-.3-.76-.4s-.58-.14-.89-.14c-1.22,0-1.83.76-1.83,2.27,0,.79.16,1.39.48,1.8.32.41.78.61,1.39.61.3,0,.61-.05.91-.14.31-.1.58-.23.82-.4l.13.07-.11,1.12c-.59.27-1.2.41-1.83.41-1.02,0-1.79-.29-2.33-.87s-.81-1.41-.81-2.48.28-1.95.85-2.54c.57-.59,1.38-.89,2.43-.89.72,0,1.36.14,1.89.42Z"/>
    <path class="cls-1" d="M514.94,307.66l.05,2.1h-1.27l.05-1.98-.05-4.63h1.29l-.07,4.51Z"/>
    <path class="cls-1" d="M522.63,309.76h-1.29l-.17-.82-.24-.73h-1.48s-1.33,0-1.33,0l-.25.66-.19.88h-1.26l2.48-6.61h1.48l2.24,6.61ZM520.61,307.23l-.94-2.89h-.09l-1.07,2.89h1.05s1.06,0,1.06,0Z"/>
    <path class="cls-1" d="M527.87,308.81l-.09.95h-3.68l.05-1.98-.05-4.63h1.3l-.07,4.51v1.04h2.46l.08.11Z"/>
    <path class="cls-1" d="M533.46,308.7l.09.09-.11.96h-4.25l.05-1.98-.05-4.63h4.29l.08.11-.09.96-1.68-.07h-1.33s-.03,1.73-.03,1.73h1.27s1.15-.03,1.15-.03l.07.11-.08.98-1.25-.04h-1.18s-.01.77-.01.77l.03,1.08h1.23s1.79-.04,1.79-.04Z"/>
    <path class="cls-1" d="M538.9,303.4l-.2,1.2-.2.04c-.51-.4-1-.61-1.46-.61-.33,0-.58.08-.78.25-.19.17-.28.36-.28.58s.1.4.3.55c.2.14.51.31.93.48.4.17.72.32.96.47.24.15.45.34.63.57s.26.53.26.88-.09.69-.28,1c-.19.31-.47.56-.85.75-.38.19-.83.28-1.36.28-.32,0-.65-.04-1.01-.11-.35-.07-.69-.18-1.02-.32l.17-1.28.15-.08c.26.26.56.46.91.6.35.14.67.22.96.22.32,0,.58-.08.78-.24.2-.16.3-.36.3-.6s-.1-.43-.3-.57c-.2-.15-.52-.31-.94-.48-.38-.17-.69-.32-.94-.47-.25-.14-.46-.34-.63-.58-.17-.24-.26-.54-.26-.89s.1-.7.3-1c.2-.3.49-.54.86-.71.38-.18.81-.26,1.3-.26.56,0,1.13.11,1.7.33Z"/>
  </g>
</svg>