<?xml version="1.0" encoding="UTF-8"?>
<svg id="Calque_2" data-name="Calque 2" xmlns="http://www.w3.org/2000/svg" viewBox="0 0 606.16 97.46">
  <defs>
    <style>
      .cls-1 {
        fill: #fff;
      }

      .cls-2 {
        fill: #144a7f;
      }
    </style>
  </defs>
  <g id="Calque_1-2" data-name="Calque 1">
    <g>
      <g id="Calque_2-2" data-name="Calque 2-2">
        <g id="Calque_1-2-2" data-name="Calque 1-2-2">
          <rect class="cls-2" width="94.66" height="94.66"/>
          <path class="cls-1" d="m49.59,63.91s1,.17,0,.6c-4.97,1.79-10.2,2.7-15.48,2.71-8.45,0-18.4-3.65-20.21-14-1.7-9.76,6.75-24.38,26.79-32.49,0,0,15.8-6.38,28.9-1.94,0,0,12,3.64,10.64,16.33,0,0-.47,11.25-13.8,18.34,0,0-5.62,3.25-5.39-.38l1.33-11s.8-2.5-1.8-1.23c0,0-1.18.67-.94-.27,0,0,0-.15.61-.38l4.63-1.33s1.32-.51,1,1.47l-1.3,10.48s-.57,2.44,1.14,1.7h0c5.43-1.7,9.45-8.27,9.45-8.27,5.84-10.25,1.51-16.82,1.51-16.82-5.39-9-18.52-8.61-18.52-8.61-11.27-.08-22.17,3.99-30.62,11.45-15,13.13-10.28,24.19-10.28,24.19,6.52,16.91,32.1,9.48,32.1,9.48l.24-.03Z"/>
          <path class="cls-1" d="m25.17,47.51c0-2.25,1.6-7.27,4.35-7.27,1.07,0,1.28.87,1.28,1.73,0,.61-.07,1.21-.21,1.8l-5.42,3.74Zm7.95,3.49c-1.28,1.11-3,2.57-4.82,2.57-2.67,0-3.16-2.77-3.13-4.88,3.48-2.39,6.73-4.4,9.64-6.85.05-.27.09-.54.11-.81,0-.1,0-.2-.17-.2-.29,0,0,.17-1.25.93v-.63c0-1.69-1.14-2.05-2.66-2.05-5.54,0-9.46,5.06-9.46,10.3,0,3.29,1.39,5.75,5,5.75,2.77-.07,5.38-1.3,7.19-3.39l-.45-.74Z"/>
          <path class="cls-1" d="m38.46,40.74c1.85-.94,3.86-1.53,5.93-1.74.38,0,.51.07.51.68,0,1.32-.35,3-.59,5.89l.07.06c1.18-2.79,3.54-6.63,6.62-6.63,1.75,0,2.27,1.76,2.27,3.2s-1,8.94-1,9.63c0,.24,0,1.07.41,1.07.82-.23,1.61-.57,2.35-1l.28.8c-1.75,1.18-3.76,1.91-5.86,2.13-.72,0-.72-1.38-.72-1.79,0-2.28,1.21-7.75,1.22-10.41,0-.59-.17-1.22-.94-1.22-1.38,0-2.59,2-3.12,3-1.73,3.15-2,5-2.76,10h-3.35c.55-4.11,1.59-10.79,1.59-12.41,0-.62,0-1.18-.51-1.18-.75.15-1.47.41-2.15.77l-.25-.85Z"/>
          <path class="cls-1" d="m62.7,35c.07-1.29,1.1-2.33,2.39-2.42.78,0,1.42.64,1.42,1.42v.08c-.02,1.27-.99,2.32-2.25,2.43-.8.05-1.5-.56-1.55-1.36,0-.05-.01-.1-.01-.15Z"/>
          <rect class="cls-1" x="18.63" y="79.59" width="57.61" height="1.89"/>
        </g>
      </g>
      <path class="cls-1" d="m125.52,76.47h9.86v2h-7.49v6.08h6.92v2h-6.92v8.28h-2.37v-18.36Z"/>
      <path class="cls-1" d="m154.38,85.43c0,6.3-3.83,9.64-8.49,9.64s-8.23-3.75-8.23-9.29,3.61-9.61,8.5-9.61,8.22,3.83,8.22,9.26Zm-14.19.3c0,3.91,2.11,7.41,5.83,7.41s5.87-3.45,5.87-7.6c0-3.64-1.91-7.44-5.84-7.44s-5.86,3.61-5.86,7.63Z"/>
      <path class="cls-1" d="m157.45,76.72c1.5-.27,3.02-.4,4.54-.38,2.52,0,4.15.46,5.29,1.49.96.9,1.48,2.16,1.44,3.47.04,2.17-1.37,4.09-3.45,4.7v.08c1.41.49,2.25,1.8,2.69,3.7.32,1.7.79,3.38,1.41,5h-2.44c-.55-1.41-.96-2.88-1.22-4.37-.55-2.53-1.52-3.48-3.67-3.56h-2.22v7.93h-2.37v-18.06Zm2.37,8.33h2.41c2.53,0,4.13-1.38,4.13-3.47,0-2.37-1.71-3.4-4.21-3.42-.78-.02-1.56.05-2.33.21v6.68Z"/>
      <path class="cls-1" d="m187.48,86.73c-.14-2.55-.3-5.62-.27-7.9h-.08c-.63,2.15-1.39,4.43-2.31,7l-3.23,8.88h-1.79l-3-8.71c-.87-2.58-1.6-4.94-2.12-7.12h-.05c-.06,2.28-.19,5.35-.36,8.09l-.49,7.85h-2.25l1.28-18.3h3l3.19,8.8c.76,2.25,1.39,4.26,1.85,6.16h.08c.46-1.84,1.11-3.85,1.93-6.16l3.25-8.85h3l1.14,18.3h-2.31l-.46-8.04Z"/>
      <path class="cls-1" d="m196.58,89l-1.9,5.76h-2.45l6.22-18.3h2.85l6.24,18.3h-2.54l-2-5.76h-6.42Zm6-1.84l-1.8-5.27c-.4-1.19-.67-2.28-.95-3.34h-.05c-.27,1.09-.57,2.2-.92,3.31l-1.79,5.3h5.51Z"/>
      <path class="cls-1" d="m211.62,78.48h-5.57v-2h13.55v2h-5.6v16.29h-2.39v-16.29Z"/>
      <path class="cls-1" d="m224,76.47v18.3h-2.36v-18.3h2.36Z"/>
      <path class="cls-1" d="m243.76,85.43c0,6.3-3.83,9.64-8.5,9.64s-8.22-3.75-8.22-9.29,3.61-9.61,8.5-9.61,8.22,3.83,8.22,9.26Zm-14.2.3c0,3.91,2.12,7.41,5.84,7.41s5.86-3.45,5.86-7.6c0-3.64-1.9-7.44-5.83-7.44s-5.87,3.61-5.87,7.63Z"/>
      <path class="cls-1" d="m246.83,94.77v-18.3h2.58l5.86,9.26c1.23,1.91,2.33,3.89,3.29,5.94h.05c-.21-2.45-.27-4.67-.27-7.52v-7.68h2.23v18.3h-2.39l-5.81-9.29c-1.27-1.96-2.41-4-3.42-6.1h-.08c.13,2.31.19,4.51.19,7.55v7.82l-2.23.02Z"/>
      <path class="cls-1" d="m264.37,91.89c1.28.77,2.75,1.18,4.24,1.19,2.41,0,3.82-1.27,3.82-3.12s-1-2.68-3.44-3.63c-3-1.06-4.84-2.61-4.84-5.19,0-2.85,2.37-5,5.92-5,1.4-.04,2.8.26,4.05.9l-.66,1.96c-1.06-.58-2.26-.88-3.47-.87-2.5,0-3.45,1.49-3.45,2.74,0,1.71,1.12,2.55,3.64,3.53,3.09,1.19,4.67,2.69,4.67,5.37,0,2.83-2.09,5.27-6.41,5.27-1.63.02-3.24-.39-4.67-1.17l.6-1.98Z"/>
      <path class="cls-1" d="m286.8,89l-1.9,5.76h-2.45l6.22-18.3h2.85l6.24,18.3h-2.52l-2-5.76h-6.44Zm2.2-16.68l2.5,3.15h-1.93l-3.47-3.15h2.9Zm3.77,14.85l-1.77-5.27c-.4-1.19-.68-2.28-.95-3.34h-.05c-.27,1.09-.57,2.2-.92,3.31l-1.8,5.3h5.49Z"/>
      <path class="cls-1" d="m306.21,76.47h2.36v16.32h7.82v2h-10.18v-18.32Z"/>
      <path class="cls-1" d="m319.16,76.17c-.61,2.23-1.47,4.39-2.55,6.44l-1.52.19c.71-2.08,1.25-4.21,1.6-6.38l2.47-.25Z"/>
      <path class="cls-1" d="m324.21,76.47v18.3h-2.36v-18.3h2.36Z"/>
      <path class="cls-1" d="m328.34,94.77v-18.3h2.57l5.87,9.26c1.22,1.91,2.31,3.89,3.28,5.94h.06c-.22-2.45-.28-4.67-.28-7.52v-7.68h2.23v18.3h-2.39l-5.81-9.29c-1.26-1.97-2.4-4-3.42-6.1h-.08c.14,2.31.19,4.51.19,7.55v7.82l-2.22.02Z"/>
      <path class="cls-1" d="m346.2,76.47h9.85v2h-7.49v6.08h6.92v2h-6.92v8.28h-2.36v-18.36Z"/>
      <path class="cls-1" d="m375.06,85.43c0,6.3-3.83,9.64-8.5,9.64s-8.22-3.75-8.22-9.29,3.61-9.61,8.49-9.61,8.23,3.83,8.23,9.26Zm-14.2.3c0,3.91,2.12,7.41,5.84,7.41s5.86-3.45,5.86-7.6c0-3.64-1.9-7.44-5.84-7.44s-5.86,3.61-5.86,7.63Z"/>
      <path class="cls-1" d="m378.13,76.72c1.49-.27,3.01-.4,4.53-.38,2.53,0,4.16.46,5.29,1.49.96.89,1.49,2.16,1.44,3.47.05,2.15-1.34,4.07-3.39,4.7v.08c1.41.49,2.25,1.8,2.68,3.7.32,1.7.79,3.38,1.41,5h-2.49c-.54-1.42-.95-2.88-1.22-4.37-.54-2.53-1.52-3.48-3.66-3.56h-2.23v7.93h-2.36v-18.06Zm2.36,8.33h2.42c2.52,0,4.12-1.38,4.12-3.47,0-2.37-1.71-3.4-4.21-3.42-.78-.02-1.56.05-2.33.21v6.68Z"/>
      <path class="cls-1" d="m408.15,86.73c-.13-2.55-.29-5.62-.27-7.9h-.08c-.62,2.15-1.38,4.43-2.31,7l-3.23,8.88h-1.79l-3-8.71c-.87-2.58-1.6-4.94-2.11-7.12h-.06c0,2.28-.19,5.35-.35,8.09l-.49,7.85h-2.25l1.27-18.3h3l3.12,8.85c.76,2.25,1.38,4.26,1.84,6.16h.08c.47-1.84,1.12-3.85,1.93-6.16l3.26-8.85h3l1.14,18.3h-2.3l-.4-8.09Z"/>
      <path class="cls-1" d="m417.25,89l-1.9,5.76h-2.44l6.21-18.3h2.88l6.25,18.3h-2.53l-1.98-5.76h-6.49Zm6-1.84l-1.79-5.27c-.41-1.19-.68-2.28-.95-3.34h-.06c-.27,1.09-.57,2.2-.92,3.31l-1.79,5.3h5.51Z"/>
      <path class="cls-1" d="m432.29,78.48h-5.56v-2h13.54v2h-5.59v16.29h-2.39v-16.29Z"/>
      <path class="cls-1" d="m444.67,76.47v18.3h-2.36v-18.3h2.36Z"/>
      <path class="cls-1" d="m463.89,97.46c-2.47-.66-4.88-1.39-7-2.12-.35-.15-.73-.24-1.11-.27-4.35-.17-8.07-3.37-8.07-9.26s3.59-9.64,8.53-9.64,8.2,3.86,8.2,9.26c0,4.7-2.18,7.71-5.22,8.77v.11c1.82.46,3.8.89,5.35,1.16l-.68,1.99Zm-1.95-11.92c0-3.67-1.9-7.44-5.78-7.44s-6,3.69-5.92,7.66,2.12,7.38,5.81,7.38,5.89-3.42,5.89-7.6Z"/>
      <path class="cls-1" d="m469.87,76.47v10.83c0,4.1,1.82,5.84,4.26,5.84,2.72,0,4.45-1.79,4.45-5.84v-10.83h2.42v10.67c0,5.62-3,7.93-6.92,7.93s-6.57-2.15-6.57-7.82v-10.78h2.36Z"/>
      <path class="cls-1" d="m494.55,86.19h-7.12v6.6h7.93v2h-10.29v-18.32h9.93v2h-7.52v5.79h7.12l-.05,1.93Z"/>
      <path class="cls-1" d="m513.66,86.19h-7.11v6.6h7.92v2h-10.28v-18.32h9.88v2h-7.52v5.79h7.11v1.93Z"/>
      <path class="cls-1" d="m517.54,94.77v-18.3h2.58l5.88,9.26c1.22,1.91,2.31,3.89,3.28,5.94h.05c-.21-2.45-.27-4.67-.27-7.52v-7.68h2.23v18.3h-2.39l-5.81-9.29c-1.26-1.96-2.4-4-3.42-6.1h-.08c.14,2.31.19,4.51.19,7.55v7.82l-2.24.02Z"/>
      <path class="cls-1" d="m541.16,76.47h2.37v16.32h7.81v2h-10.18v-18.32Z"/>
      <path class="cls-1" d="m556.34,76.47v18.3h-2.34v-18.3h2.34Z"/>
      <path class="cls-1" d="m574.39,94c-1.8.65-3.7.99-5.62,1-4.73.45-8.93-3.02-9.38-7.75-.05-.49-.05-.99-.01-1.48,0-5.46,3.77-9.45,9.91-9.45,1.56-.04,3.11.25,4.56.84l-.57,1.93c-1.26-.55-2.63-.82-4-.79-4.46,0-7.36,2.77-7.36,7.36s2.8,7.38,7.06,7.38c1.07.06,2.14-.11,3.15-.48v-5.5h-3.72v-1.9h6l-.02,8.84Z"/>
      <path class="cls-1" d="m578,94.77v-18.3h2.58l5.86,9.26c1.22,1.91,2.32,3.89,3.28,5.94h.06c-.22-2.45-.27-4.67-.27-7.52v-7.68h2.22v18.3h-2.39l-5.81-9.29c-1.26-1.97-2.4-4-3.42-6.1h-.08c.14,2.31.19,4.51.19,7.55v7.82l-2.22.02Z"/>
      <path class="cls-1" d="m605.35,86.19h-7.12v6.6h7.93v2h-10.29v-18.32h9.88v2h-7.52v5.79h7.12v1.93Z"/>
      <g id="ENI_elearning" data-name="ENI elearning">
        <g>
          <path class="cls-1" d="m145.11,52.6h-19.6V17.43h19.6v3.62h-15.52v11.33h14.58v3.61h-14.58v12.95h15.52v3.66Z"/>
          <path class="cls-1" d="m180.36,52.6h-4.66l-19.21-29.52h-.19c.26,3.47.39,6.63.39,9.52v19.99h-3.78V17.43h4.61l19.18,29.4h.19c-.04-.44-.11-1.83-.21-4.17s-.16-4.03-.12-5.03v-20.18h3.82v35.17-.02Z"/>
          <path class="cls-1" d="m190.04,52.6V17.43h4.08v35.17h-4.08Z"/>
          <path class="cls-1" d="m227.11,53.08c-3.89,0-6.97-1.18-9.22-3.55s-3.38-5.66-3.38-9.89,1.04-7.62,3.13-10.13,4.91-3.75,8.43-3.75c3.31,0,5.91,1.09,7.85,3.25,1.94,2.16,2.89,5.03,2.89,8.6v2.53h-18.16c.09,3.1.86,5.44,2.34,7.05s3.57,2.41,6.26,2.41c2.83,0,5.65-.6,8.43-1.78v3.55c-1.41.62-2.74,1.04-4.01,1.32s-2.78.4-4.56.4v-.04Zm-1.09-23.98c-2.11,0-3.8.69-5.07,2.08s-2.01,3.29-2.22,5.72h13.78c0-2.52-.56-4.45-1.69-5.79s-2.73-2.01-4.8-2.01Z"/>
          <path class="cls-1" d="m247.6,52.6h-3.99V15.18h3.99v37.42Z"/>
          <path class="cls-1" d="m267.2,53.08c-3.89,0-6.97-1.18-9.22-3.55s-3.38-5.66-3.38-9.89,1.04-7.62,3.13-10.13,4.91-3.75,8.43-3.75c3.31,0,5.91,1.09,7.85,3.25s2.89,5.03,2.89,8.6v2.53h-18.16c.09,3.1.86,5.44,2.34,7.05s3.57,2.41,6.26,2.41c2.83,0,5.65-.6,8.43-1.78v3.55c-1.41.62-2.74,1.04-4.01,1.32s-2.78.4-4.56.4v-.04Zm-1.09-23.98c-2.11,0-3.8.69-5.07,2.08s-2.01,3.29-2.22,5.72h13.78c0-2.52-.56-4.45-1.69-5.79s-2.73-2.01-4.8-2.01Z"/>
          <path class="cls-1" d="m299.91,52.6l-.79-3.75h-.19c-1.32,1.65-2.62,2.76-3.94,3.36s-2.94.88-4.89.88c-2.62,0-4.66-.67-6.14-2.02s-2.22-3.25-2.22-5.75c0-5.33,4.26-8.11,12.77-8.37l4.47-.14v-1.64c0-2.08-.44-3.59-1.34-4.57s-2.3-1.48-4.28-1.48c-2.2,0-4.68.67-7.46,2.02l-1.23-3.06c1.3-.7,2.73-1.27,4.28-1.65s3.1-.6,4.66-.6c3.15,0,5.47.7,6.98,2.09s2.27,3.62,2.27,6.7v18h-2.96v-.02Zm-9.03-2.81c2.48,0,4.43-.69,5.86-2.04s2.13-3.27,2.13-5.72v-2.38l-3.99.18c-3.17.11-5.47.6-6.86,1.48s-2.11,2.23-2.11,4.08c0,1.44.44,2.53,1.32,3.29s2.09,1.13,3.66,1.13v-.02Z"/>
          <path class="cls-1" d="m323.13,25.75c1.18,0,2.22.09,3.15.28l-.55,3.71c-1.09-.25-2.06-.37-2.89-.37-2.13,0-3.96.86-5.47,2.6s-2.27,3.89-2.27,6.47v14.14h-3.99v-26.35h3.29l.46,4.89h.19c.99-1.72,2.16-3.04,3.54-3.98s2.9-1.39,4.54-1.39v-.02Z"/>
          <path class="cls-1" d="m349.24,52.6v-17.05c0-2.15-.49-3.75-1.46-4.8s-2.52-1.58-4.59-1.58c-2.76,0-4.79.74-6.07,2.23s-1.92,3.96-1.92,7.39v13.83h-3.99v-26.35h3.25l.65,3.61h.19c.81-1.3,1.97-2.3,3.45-3.03s3.11-1.07,4.93-1.07c3.17,0,5.56.77,7.16,2.3s2.41,3.98,2.41,7.35v17.21h-3.99l-.02-.04Z"/>
          <path class="cls-1" d="m361.1,19.1c0-.91.23-1.58.67-2.01s1-.63,1.69-.63,1.2.21,1.65.65.7,1.09.7,1.99-.23,1.57-.7,2.01-1.02.67-1.65.67c-.67,0-1.23-.21-1.69-.67s-.67-1.11-.67-2.01Zm4.33,33.5h-3.99v-26.35h3.99v26.35Z"/>
          <path class="cls-1" d="m391.94,52.6v-17.05c0-2.15-.49-3.75-1.46-4.8s-2.52-1.58-4.59-1.58c-2.76,0-4.79.74-6.07,2.23s-1.92,3.96-1.92,7.39v13.83h-3.99v-26.35h3.25l.65,3.61h.19c.81-1.3,1.97-2.3,3.45-3.03s3.11-1.07,4.93-1.07c3.17,0,5.56.77,7.16,2.3s2.41,3.98,2.41,7.35v17.21h-3.99l-.02-.04Z"/>
          <path class="cls-1" d="m425.71,26.25v2.53l-4.89.58c.44.56.84,1.3,1.2,2.2s.53,1.94.53,3.06c0,2.59-.88,4.64-2.64,6.18-1.76,1.53-4.19,2.3-7.27,2.3-.79,0-1.53-.07-2.22-.19-1.71.9-2.55,2.02-2.55,3.4,0,.72.3,1.25.9,1.6s1.62.51,3.06.51h4.66c2.85,0,5.05.6,6.58,1.81,1.53,1.21,2.3,2.96,2.3,5.24,0,2.92-1.18,5.14-3.52,6.67s-5.75,2.3-10.24,2.3c-3.45,0-6.1-.63-7.97-1.92s-2.8-3.1-2.8-5.44c0-1.6.51-2.99,1.55-4.17s2.46-1.97,4.33-2.38c-.67-.3-1.23-.77-1.69-1.43s-.69-1.39-.69-2.23c0-.97.26-1.81.77-2.53s1.32-1.43,2.43-2.09c-1.35-.56-2.48-1.51-3.33-2.87s-1.28-2.89-1.28-4.61c0-2.89.86-5.12,2.6-6.67s4.19-2.34,7.35-2.34c1.37,0,2.62.16,3.73.48h9.11-.04Zm-21.02,30.79c0,1.43.6,2.52,1.81,3.25s2.92,1.11,5.17,1.11c3.36,0,5.84-.51,7.44-1.5s2.41-2.36,2.41-4.08c0-1.43-.44-2.41-1.32-2.97s-2.53-.83-4.98-.83h-4.79c-1.81,0-3.22.44-4.24,1.3s-1.51,2.11-1.51,3.73v-.02Zm2.16-22.34c0,1.85.53,3.24,1.57,4.19s2.5,1.43,4.35,1.43c3.89,0,5.84-1.9,5.84-5.68s-1.97-5.95-5.91-5.95c-1.88,0-3.33.51-4.33,1.51s-1.51,2.52-1.51,4.5Z"/>
        </g>
      </g>
    </g>
  </g>
</svg>